<svg width="172" height="72" viewBox="0 0 172 72" fill="none" xmlns="http://www.w3.org/2000/svg">
<path d="M61.064 36.248C61.064 32.984 61.8 30.056 63.272 27.464C64.744 24.84 66.744 22.792 69.272 21.32C71.832 19.848 74.664 19.112 77.768 19.112C81.416 19.112 84.6 19.992 87.32 21.752C90.04 23.512 92.024 26.008 93.272 29.24H88.04C87.112 27.224 85.768 25.672 84.008 24.584C82.28 23.496 80.2 22.952 77.768 22.952C75.432 22.952 73.336 23.496 71.48 24.584C69.624 25.672 68.168 27.224 67.112 29.24C66.056 31.224 65.528 33.56 65.528 36.248C65.528 38.904 66.056 41.24 67.112 43.256C68.168 45.24 69.624 46.776 71.48 47.864C73.336 48.952 75.432 49.496 77.768 49.496C80.2 49.496 82.28 48.968 84.008 47.912C85.768 46.824 87.112 45.272 88.04 43.256H93.272C92.024 46.456 90.04 48.936 87.32 50.696C84.6 52.424 81.416 53.288 77.768 53.288C74.664 53.288 71.832 52.568 69.272 51.128C66.744 49.656 64.744 47.624 63.272 45.032C61.8 42.44 61.064 39.512 61.064 36.248ZM111.246 53.432C108.782 53.432 106.542 52.872 104.526 51.752C102.542 50.632 100.974 49.048 99.8221 47C98.7021 44.92 98.1421 42.52 98.1421 39.8C98.1421 37.112 98.7181 34.744 99.8701 32.696C101.054 30.616 102.654 29.032 104.67 27.944C106.686 26.824 108.942 26.264 111.438 26.264C113.934 26.264 116.19 26.824 118.206 27.944C120.222 29.032 121.806 30.6 122.958 32.648C124.142 34.696 124.734 37.08 124.734 39.8C124.734 42.52 124.126 44.92 122.91 47C121.726 49.048 120.11 50.632 118.062 51.752C116.014 52.872 113.742 53.432 111.246 53.432ZM111.246 49.592C112.814 49.592 114.286 49.224 115.662 48.488C117.038 47.752 118.142 46.648 118.974 45.176C119.838 43.704 120.27 41.912 120.27 39.8C120.27 37.688 119.854 35.896 119.022 34.424C118.19 32.952 117.102 31.864 115.758 31.16C114.414 30.424 112.958 30.056 111.39 30.056C109.79 30.056 108.318 30.424 106.974 31.16C105.662 31.864 104.606 32.952 103.806 34.424C103.006 35.896 102.606 37.688 102.606 39.8C102.606 41.944 102.99 43.752 103.758 45.224C104.558 46.696 105.614 47.8 106.926 48.536C108.238 49.24 109.678 49.592 111.246 49.592ZM134.845 30.968C135.613 29.464 136.701 28.296 138.109 27.464C139.549 26.632 141.293 26.216 143.341 26.216V30.728H142.189C137.293 30.728 134.845 33.384 134.845 38.696V53H130.477V26.696H134.845V30.968ZM171.04 26.696L155.2 65.384H150.688L155.872 52.712L145.264 26.696H150.112L158.368 48.008L166.528 26.696H171.04Z" fill="black"/>
<path d="M42 19.6333C41.5 19.1333 41 18.6333 40.5 18.1333C39 16.5333 37.4 14.9333 35.4 13.9333C33.1 12.7333 30.6 13.0333 28.1 13.0333C24.3 13.0333 14.8 13.0333 9.2 13.0333L13 18.1333C19.9 18.1333 30.7 18.1333 35.7 18.1333C37.8 18.1333 39.6 18.5333 41.3 19.6333C41.6 19.7333 41.9 19.7333 42 19.6333Z" fill="#26EE5A"/>
<path d="M46.2 27.8333C45.7 27.3333 45.2 26.8333 44.7 26.3333C43.2 24.7333 41.6 23.1333 39.6 22.1333C37.3 20.9333 34.8 21.2333 32.3 21.2333C29 21.2333 21.1 21.2333 15.5 21.2333L19.3 26.3333C26.1 26.3333 35.4 26.3333 40 26.3333C42.1 26.3333 43.9 26.7333 45.6 27.8333C45.8 27.9333 46 27.9333 46.2 27.8333Z" fill="#26EE5A"/>
<path d="M50.9 35.8333C50.4 35.3333 49.9 34.8333 49.4 34.3333C47.9 32.7333 46.3 31.1333 44.3 30.1333C42 28.9333 39.5 29.2333 37 29.2333C33.9 29.2333 27.1 29.2333 21.6 29.2333L25.4 34.3333C32 34.3333 40.4 34.3333 44.6 34.3333C46.7 34.3333 48.5 34.7333 50.2 35.8333C50.5 35.9333 50.7 36.0333 50.9 35.8333Z" fill="#26EE5A"/>
<path d="M8.8 49.3333C9.3 49.8333 9.8 50.3333 10.3 50.8333C11.8 52.4333 13.4 54.0333 15.4 55.0333C17.7 56.2333 20.2 55.9333 22.7 55.9333H41.6L37.8 50.8333C30.9 50.8333 20.1 50.8333 15.1 50.8333C13 50.8333 11.2 50.4333 9.5 49.3333C9.2 49.2333 9 49.2333 8.8 49.3333Z" fill="#26EE5A"/>
<path d="M4.60001 41.1333C5.10001 41.6333 5.60001 42.1333 6.10001 42.6333C7.60001 44.2333 9.2 45.8334 11.2 46.8334C13.5 48.0334 16 47.7334 18.5 47.7334H35.3L31.5 42.6333C24.7 42.6333 15.4 42.6333 10.8 42.6333C8.7 42.6333 6.9 42.2333 5.2 41.1333C5 41.0333 4.80001 41.0333 4.60001 41.1333Z" fill="#26EE5A"/>
<path d="M0 33.0333C0.5 33.5333 1 34.0333 1.5 34.5333C3 36.1333 4.60001 37.7333 6.60001 38.7333C8.90001 39.9333 11.4 39.6333 13.9 39.6333H29.3L25.5 34.5333C18.9 34.5333 10.5 34.5333 6.3 34.5333C4.2 34.5333 2.4 34.1333 0.699997 33.0333C0.399997 32.9333 0.2 32.9333 0 33.0333Z" fill="#26EE5A"/>
</svg>
